BodoniModa-6ptBlack.ufo
<glyph name="numbersign" format="2">
  <advance width="1292"/>
  <unicode hex="0023"/>
  <outline>
    <contour>
      <point x="700" y="-12" type="line"/>
      <point x="772" y="-10" type="line"/>
      <point x="972" y="1510" type="line"/>
      <point x="900" y="1508" type="line"/>
    </contour>
    <contour>
      <point x="60" y="474" type="line"/>
      <point x="1174" y="474" type="line"/>
      <point x="1174" y="548" type="line"/>
      <point x="60" y="548" type="line"/>
    </contour>
    <contour>
      <point x="300" y="-10" type="line"/>
      <point x="372" y="-10" type="line"/>
      <point x="572" y="1510" type="line"/>
      <point x="500" y="1510" type="line"/>
    </contour>
    <contour>
      <point x="120" y="984" type="line"/>
      <point x="1232" y="984" type="line"/>
      <point x="1232" y="1056" type="line"/>
      <point x="120" y="1056" type="line"/>
    </contour>
  </outline>
</glyph>
<glyph name="quotesingle" format="2">
  <advance width="638"/>
  <unicode hex="0027"/>
  <outline>
    <contour>
      <point x="284" y="836" type="curve"/>
      <point x="356" y="836" type="line"/>
      <point x="356" y="1056"/>
      <point x="518" y="1132"/>
      <point x="538" y="1282" type="curve" smooth="yes"/>
      <point x="540" y="1296"/>
      <point x="540" y="1306"/>
      <point x="540" y="1318" type="curve" smooth="yes"/>
      <point x="540" y="1436"/>
      <point x="438" y="1520"/>
      <point x="320" y="1520" type="curve" smooth="yes"/>
      <point x="202" y="1520"/>
      <point x="100" y="1436"/>
      <point x="100" y="1318" type="curve" smooth="yes"/>
      <point x="100" y="1306"/>
      <point x="100" y="1296"/>
      <point x="102" y="1282" type="curve" smooth="yes"/>
      <point x="122" y="1132"/>
      <point x="284" y="1056"/>
    </contour>
  </outline>
</glyph>
<glyph name="parenright" format="2">
  <advance width="780"/>
  <unicode hex="0029"/>
  <outline>
    <contour>
      <point x="52" y="-340" type="line"/>
      <point x="378" y="-200"/>
      <point x="650" y="144"/>
      <point x="650" y="610" type="curve" smooth="yes"/>
      <point x="650" y="1076"/>
      <point x="378" y="1460"/>
      <point x="52" y="1600" type="curve"/>
      <point x="20" y="1548" type="line"/>
      <point x="168" y="1448"/>
      <point x="220" y="994"/>
      <point x="220" y="610" type="curve" smooth="yes"/>
      <point x="220" y="226"/>
      <point x="168" y="-188"/>
      <point x="20" y="-288" type="curve"/>
    </contour>
  </outline>
</glyph>
<glyph name="asterisk" format="2">
  <advance width="1253"/>
  <unicode hex="002A"/>
  <outline>
    <contour>
      <point x="627" y="152" type="curve" smooth="yes"/>
      <point x="745" y="152"/>
      <point x="827" y="236"/>
      <point x="827" y="354" type="curve" smooth="yes"/>
      <point x="827" y="366"/>
      <point x="827" y="376"/>
      <point x="825" y="390" type="curve" smooth="yes"/>
      <point x="807" y="523"/>
      <point x="694" y="597"/>
      <point x="668" y="765" type="curve"/>
      <point x="800" y="658"/>
      <point x="808" y="523"/>
      <point x="914" y="442" type="curve" smooth="yes"/>
      <point x="925" y="433"/>
      <point x="934" y="428"/>
      <point x="944" y="422" type="curve" smooth="yes"/>
      <point x="1046" y="363"/>
      <point x="1160" y="392"/>
      <point x="1219" y="494" type="curve" smooth="yes"/>
      <point x="1278" y="596"/>
      <point x="1246" y="709"/>
      <point x="1144" y="768" type="curve" smooth="yes"/>
      <point x="1134" y="774"/>
      <point x="1125" y="779"/>
      <point x="1112" y="784" type="curve" smooth="yes"/>
      <point x="988" y="835"/>
      <point x="868" y="775"/>
      <point x="710" y="836" type="curve"/>
      <point x="868" y="897"/>
      <point x="988" y="837"/>
      <point x="1112" y="888" type="curve" smooth="yes"/>
      <point x="1125" y="893"/>
      <point x="1134" y="898"/>
      <point x="1144" y="904" type="curve" smooth="yes"/>
      <point x="1246" y="963"/>
      <point x="1278" y="1076"/>
      <point x="1219" y="1178" type="curve" smooth="yes"/>
      <point x="1160" y="1280"/>
      <point x="1046" y="1309"/>
      <point x="944" y="1250" type="curve" smooth="yes"/>
      <point x="934" y="1244"/>
      <point x="925" y="1239"/>
      <point x="914" y="1230" type="curve" smooth="yes"/>
      <point x="808" y="1149"/>
      <point x="800" y="1014"/>
      <point x="668" y="907" type="curve"/>
      <point x="694" y="1075"/>
      <point x="807" y="1149"/>
      <point x="825" y="1282" type="curve" smooth="yes"/>
      <point x="827" y="1296"/>
      <point x="827" y="1306"/>
      <point x="827" y="1318" type="curve" smooth="yes"/>
      <point x="827" y="1436"/>
      <point x="745" y="1520"/>
      <point x="627" y="1520" type="curve" smooth="yes"/>
      <point x="509" y="1520"/>
      <point x="427" y="1436"/>
      <point x="427" y="1318" type="curve" smooth="yes"/>
      <point x="427" y="1306"/>
      <point x="427" y="1296"/>
      <point x="429" y="1282" type="curve" smooth="yes"/>
      <point x="447" y="1149"/>
      <point x="560" y="1075"/>
      <point x="586" y="907" type="curve"/>
      <point x="454" y="1014"/>
      <point x="446" y="1149"/>
      <point x="340" y="1230" type="curve" smooth="yes"/>
      <point x="329" y="1239"/>
      <point x="320" y="1244"/>
      <point x="310" y="1250" type="curve" smooth="yes"/>
      <point x="208" y="1309"/>
      <point x="94" y="1280"/>
      <point x="35" y="1178" type="curve" smooth="yes"/>
      <point x="-24" y="1076"/>
      <point x="8" y="963"/>
      <point x="110" y="904" type="curve" smooth="yes"/>
      <point x="120" y="898"/>
      <point x="129" y="893"/>
      <point x="142" y="888" type="curve" smooth="yes"/>
      <point x="266" y="837"/>
      <point x="386" y="897"/>
      <point x="544" y="836" type="curve"/>
      <point x="386" y="775"/>
      <point x="266" y="835"/>
      <point x="142" y="784" type="curve" smooth="yes"/>
      <point x="129" y="779"/>
      <point x="120" y="774"/>
      <point x="110" y="768" type="curve" smooth="yes"/>
      <point x="8" y="709"/>
      <point x="-24" y="596"/>
      <point x="35" y="494" type="curve" smooth="yes"/>
      <point x="94" y="392"/>
      <point x="208" y="363"/>
      <point x="310" y="422" type="curve" smooth="yes"/>
      <point x="320" y="428"/>
      <point x="329" y="433"/>
      <point x="340" y="442" type="curve" smooth="yes"/>
      <point x="446" y="523"/>
      <point x="454" y="658"/>
      <point x="586" y="765" type="curve"/>
      <point x="560" y="597"/>
      <point x="447" y="523"/>
      <point x="429" y="390" type="curve" smooth="yes"/>
      <point x="427" y="376"/>
      <point x="427" y="366"/>
      <point x="427" y="354" type="curve" smooth="yes"/>
      <point x="427" y="236"/>
      <point x="509" y="152"/>
    </contour>
  </outline>
</glyph>
<glyph name="five" format="2">
  <advance width="1138"/>
  <unicode hex="0035"/>
  <outline>
    <contour>
      <point x="432" y="-20" type="curve" smooth="yes"/>
      <point x="784" y="-20"/>
      <point x="1079" y="170"/>
      <point x="1079" y="430" type="curve" smooth="yes"/>
      <point x="1079" y="730"/>
      <point x="836" y="879"/>
      <point x="524" y="879" type="curve" smooth="yes"/>
      <point x="242" y="879"/>
      <point x="171" y="748"/>
      <point x="139" y="674" type="curve"/>
      <point x="211" y="674" type="line"/>
      <point x="240" y="720"/>
      <point x="295" y="781"/>
      <point x="400" y="781" type="curve" smooth="yes"/>
      <point x="548" y="781"/>
      <point x="630" y="659"/>
      <point x="630" y="430" type="curve" smooth="yes"/>
      <point x="630" y="242"/>
      <point x="570" y="45"/>
      <point x="372" y="45" type="curve" smooth="yes"/>
      <point x="224" y="45"/>
      <point x="56" y="138"/>
      <point x="56" y="298" type="curve"/>
      <point x="-17" y="298" type="line"/>
      <point x="-17" y="238"/>
      <point x="102" y="80"/>
      <point x="214" y="80" type="curve" smooth="yes"/>
      <point x="333" y="80"/>
      <point x="448" y="180"/>
      <point x="448" y="310" type="curve" smooth="yes"/>
      <point x="448" y="450"/>
      <point x="344" y="542"/>
      <point x="214" y="542" type="curve" smooth="yes"/>
      <point x="73" y="542"/>
      <point x="-19" y="440"/>
      <point x="-19" y="298" type="curve" smooth="yes"/>
      <point x="-19" y="103"/>
      <point x="178" y="-20"/>
    </contour>
    <contour>
      <point x="94" y="674" type="line"/>
      <point x="167" y="674" type="line"/>
      <point x="167" y="1080" type="line"/>
      <point x="1010" y="1080" type="line"/>
      <point x="1010" y="1609" type="line"/>
      <point x="937" y="1609" type="line"/>
      <point x="937" y="1500" type="line"/>
      <point x="94" y="1500" type="line"/>
    </contour>
  </outline>
</glyph>
<glyph name="nine" format="2">
  <advance width="1318"/>
  <unicode hex="0039"/>
  <outline>
    <contour>
      <point x="212" y="-20" type="line"/>
      <point x="816" y="-20"/>
      <point x="1220" y="394"/>
      <point x="1220" y="880" type="curve" smooth="yes"/>
      <point x="1220" y="1300"/>
      <point x="974" y="1520"/>
      <point x="632" y="1520" type="curve" smooth="yes"/>
      <point x="290" y="1520"/>
      <point x="60" y="1300"/>
      <point x="60" y="1000" type="curve" smooth="yes"/>
      <point x="60" y="660"/>
      <point x="316" y="510"/>
      <point x="558" y="510" type="curve" smooth="yes"/>
      <point x="782" y="510"/>
      <point x="812" y="686"/>
      <point x="812" y="940" type="curve"/>
      <point x="760" y="940" type="line"/>
      <point x="760" y="674"/>
      <point x="708" y="612"/>
      <point x="642" y="612" type="curve" smooth="yes"/>
      <point x="564" y="612"/>
      <point x="520" y="666"/>
      <point x="520" y="1000" type="curve" smooth="yes"/>
      <point x="520" y="1294"/>
      <point x="530" y="1448"/>
      <point x="628" y="1448" type="curve" smooth="yes"/>
      <point x="726" y="1448"/>
      <point x="760" y="1274"/>
      <point x="760" y="940" type="curve"/>
      <point x="770" y="760" type="line"/>
      <point x="770" y="416"/>
      <point x="580" y="48"/>
      <point x="212" y="48" type="curve"/>
    </contour>
  </outline>
</glyph>
<glyph name="equal" format="2">
  <advance width="1119"/>
  <unicode hex="003D"/>
  <outline>
    <contour>
      <point x="120" y="885" type="line"/>
      <point x="999.998" y="885" type="line"/>
      <point x="999.998" y="957" type="line"/>
      <point x="120" y="957" type="line"/>
    </contour>
    <contour>
      <point x="120" y="584" type="line"/>
      <point x="999.998" y="584" type="line"/>
      <point x="999.998" y="656" type="line"/>
      <point x="120" y="656" type="line"/>
    </contour>
  </outline>
</glyph>
<glyph name="S" format="2">
  <advance width="1268"/>
  <unicode hex="0053"/>
  <anchor x="631" y="0" name="bottom"/>
  <anchor x="614" y="1500" name="top"/>
  <outline>
    <contour>
      <point x="650" y="-28" type="curve" smooth="yes"/>
      <point x="932" y="-28"/>
      <point x="1188" y="160"/>
      <point x="1188" y="460" type="curve" smooth="yes"/>
      <point x="1188" y="1060"/>
      <point x="380" y="978"/>
      <point x="380" y="1290" type="curve" smooth="yes"/>
      <point x="380" y="1398"/>
      <point x="472" y="1444"/>
      <point x="594" y="1444" type="curve" smooth="yes"/>
      <point x="802" y="1444"/>
      <point x="916" y="1266"/>
      <point x="1036" y="1028" type="curve"/>
      <point x="1108" y="1028" type="line"/>
      <point x="1108" y="1520" type="line"/>
      <point x="1048" y="1520" type="line"/>
      <point x="856" y="1423" type="line"/>
      <point x="775" y="1485"/>
      <point x="679" y="1520"/>
      <point x="574" y="1520" type="curve" smooth="yes"/>
      <point x="332" y="1520"/>
      <point x="100" y="1370"/>
      <point x="100" y="1090" type="curve" smooth="yes"/>
      <point x="100" y="450"/>
      <point x="910" y="600"/>
      <point x="910" y="250" type="curve" smooth="yes"/>
      <point x="910" y="122"/>
      <point x="792" y="44"/>
      <point x="630" y="44" type="curve" smooth="yes"/>
      <point x="372" y="44"/>
      <point x="252" y="312"/>
      <point x="152" y="510" type="curve"/>
      <point x="80" y="510" type="line"/>
      <point x="80" y="-20" type="line"/>
      <point x="148" y="-20" type="line"/>
      <point x="345" y="83" type="line"/>
      <point x="426" y="15"/>
      <point x="525" y="-28"/>
    </contour>
  </outline>
</glyph>
<glyph name="W" format="2">
  <advance width="2478"/>
  <unicode hex="0057"/>
  <anchor x="1296" y="0" name="bottom"/>
  <anchor x="1354" y="1500" name="top"/>
  <outline>
    <contour>
      <point x="790" y="-20" type="line"/>
      <point x="1032" y="-20" type="line"/>
      <point x="1313" y="694" type="line"/>
      <point x="1269" y="800" type="line"/>
      <point x="1112" y="406" type="line"/>
      <point x="692" y="1428" type="line"/>
      <point x="948" y="1428" type="line"/>
      <point x="1552" y="-20" type="line"/>
      <point x="1736" y="-20" type="line"/>
      <point x="2292" y="1428" type="line"/>
      <point x="2460" y="1428" type="line"/>
      <point x="2460" y="1500" type="line"/>
      <point x="2040" y="1500" type="line"/>
      <point x="2040" y="1428" type="line"/>
      <point x="2212" y="1428" type="line"/>
      <point x="1812" y="406" type="line"/>
      <point x="1390" y="1428" type="line"/>
      <point x="1960" y="1428" type="line"/>
      <point x="1960" y="1500" type="line"/>
      <point x="20" y="1500" type="line"/>
      <point x="20" y="1428" type="line"/>
      <point x="188" y="1428" type="line"/>
    </contour>
    <contour>
      <point x="1589" y="881" type="line"/>
      <point x="1834" y="1485" type="line"/>
      <point x="1752" y="1485" type="line"/>
      <point x="1519" y="917" type="line"/>
    </contour>
  </outline>
</glyph>
<glyph name="i" format="2">
  <advance width="710"/>
  <unicode hex="0069"/>
  <anchor x="376" y="0" name="bottom"/>
  <anchor x="376" y="0" name="cedilla"/>
  <outline>
    <contour>
      <point x="370" y="1080" type="curve" smooth="yes"/>
      <point x="496" y="1080"/>
      <point x="590" y="1174"/>
      <point x="590" y="1300" type="curve" smooth="yes"/>
      <point x="590" y="1426"/>
      <point x="496" y="1520"/>
      <point x="370" y="1520" type="curve" smooth="yes"/>
      <point x="244" y="1520"/>
      <point x="150" y="1426"/>
      <point x="150" y="1300" type="curve" smooth="yes"/>
      <point x="150" y="1174"/>
      <point x="244" y="1080"/>
    </contour>
    <contour>
      <point x="560" y="920" type="line"/>
      <point x="40" y="920" type="line"/>
      <point x="40" y="848" type="line"/>
      <point x="180" y="848" type="line"/>
      <point x="180" y="72" type="line"/>
      <point x="40" y="72" type="line"/>
      <point x="40" y="0" type="line"/>
      <point x="700" y="0" type="line"/>
      <point x="700" y="72" type="line"/>
      <point x="560" y="72" type="line"/>
    </contour>
  </outline>
</glyph>
<glyph name="k" format="2">
  <advance width="1390"/>
  <unicode hex="006B"/>
  <anchor x="676" y="0" name="bottom"/>
  <anchor x="936" y="920" name="top"/>
  <outline>
    <contour>
      <point x="28" y="0" type="line"/>
      <point x="670" y="0" type="line"/>
      <point x="670" y="72" type="line"/>
      <point x="590" y="72" type="line"/>
      <point x="590" y="1500" type="line"/>
      <point x="28" y="1500" type="line"/>
      <point x="28" y="1428" type="line"/>
      <point x="210" y="1428" type="line"/>
      <point x="210" y="72" type="line"/>
      <point x="28" y="72" type="line"/>
    </contour>
    <contour>
      <point x="728" y="0" type="line"/>
      <point x="1382" y="0" type="line"/>
      <point x="1382" y="72" type="line"/>
      <point x="1258" y="72" type="line"/>
      <point x="836" y="686" type="line"/>
      <point x="1077" y="848" type="line"/>
      <point x="1254" y="848" type="line"/>
      <point x="1254" y="920" type="line"/>
      <point x="808" y="920" type="line"/>
      <point x="808" y="848" type="line"/>
      <point x="967" y="848" type="line"/>
      <point x="494" y="542" type="line"/>
      <point x="794" y="72" type="line"/>
      <point x="728" y="72" type="line"/>
    </contour>
  </outline>
</glyph>
<glyph name="w" format="2">
  <advance width="1798"/>
  <unicode hex="0077"/>
  <anchor x="916" y="0" name="bottom"/>
  <anchor x="946" y="920" name="top"/>
  <outline>
    <contour>
      <point x="1808" y="920" type="line"/>
      <point x="1380" y="920" type="line"/>
      <point x="1380" y="848" type="line"/>
      <point x="1578" y="848" type="line"/>
      <point x="1412" y="348" type="line"/>
      <point x="1240" y="940" type="line"/>
      <point x="940" y="940" type="line"/>
      <point x="688" y="296" type="line"/>
      <point x="546" y="848" type="line"/>
      <point x="712" y="848" type="line"/>
      <point x="712" y="920" type="line"/>
      <point x="-10" y="920" type="line"/>
      <point x="-10" y="848" type="line"/>
      <point x="143" y="848" type="line"/>
      <point x="426" y="-20" type="line"/>
      <point x="646" y="-20" type="line"/>
      <point x="912" y="660" type="line"/>
      <point x="1148" y="-20" type="line"/>
      <point x="1368" y="-20" type="line"/>
      <point x="1656" y="848" type="line"/>
      <point x="1808" y="848" type="line"/>
    </contour>
  </outline>
</glyph>
<glyph name="braceright" format="2">
  <advance width="782"/>
  <unicode hex="007D"/>
  <outline>
    <contour>
      <point x="676" y="620" type="curve"/>
      <point x="676" y="666" type="line"/>
      <point x="616" y="686"/>
      <point x="554" y="706"/>
      <point x="554" y="788" type="curve" smooth="yes"/>
      <point x="554" y="914"/>
      <point x="676" y="1006"/>
      <point x="676" y="1240" type="curve" smooth="yes"/>
      <point x="676" y="1458"/>
      <point x="532" y="1560"/>
      <point x="60" y="1560" type="curve"/>
      <point x="60" y="1488" type="line"/>
      <point x="184" y="1488"/>
      <point x="248" y="1418"/>
      <point x="248" y="1292" type="curve" smooth="yes"/>
      <point x="248" y="1180"/>
      <point x="180" y="1080"/>
      <point x="180" y="920" type="curve" smooth="yes"/>
      <point x="180" y="754"/>
      <point x="288" y="660"/>
    </contour>
    <contour>
      <point x="60" y="-300" type="line"/>
      <point x="532" y="-300"/>
      <point x="676" y="-200"/>
      <point x="676" y="18" type="curve" smooth="yes"/>
      <point x="676" y="252"/>
      <point x="554" y="342"/>
      <point x="554" y="468" type="curve" smooth="yes"/>
      <point x="554" y="550"/>
      <point x="616" y="574"/>
      <point x="676" y="594" type="curve"/>
      <point x="676" y="640" type="line"/>
      <point x="288" y="600"/>
      <point x="180" y="504"/>
      <point x="180" y="338" type="curve" smooth="yes"/>
      <point x="180" y="178"/>
      <point x="248" y="78"/>
      <point x="248" y="-34" type="curve" smooth="yes"/>
      <point x="248" y="-160"/>
      <point x="184" y="-226"/>
      <point x="60" y="-226" type="curve"/>
    </contour>
  </outline>
</glyph>
<glyph name="brokenbar" format="2">
  <advance width="438"/>
  <unicode hex="00A6"/>
  <outline>
    <contour>
      <point x="200" y="-499.94" type="line"/>
      <point x="274" y="-499.94" type="line"/>
      <point x="274" y="332.053" type="line"/>
      <point x="200" y="332.053" type="line"/>
    </contour>
    <contour>
      <point x="200" y="817.905" type="line"/>
      <point x="274" y="817.905" type="line"/>
      <point x="274" y="1559.896" type="line"/>
      <point x="200" y="1559.896" type="line"/>
    </contour>
  </outline>
</glyph>
<glyph name="section" format="2">
  <advance width="1010"/>
  <unicode hex="00A7"/>
  <outline>
    <contour>
      <point x="348" y="1298" type="curve" smooth="yes"/>
      <point x="348" y="1392"/>
      <point x="437" y="1447"/>
      <point x="543" y="1447" type="curve" smooth="yes"/>
      <point x="628" y="1447"/>
      <point x="709" y="1433"/>
      <point x="767" y="1402" type="curve"/>
      <point x="764" y="1402"/>
      <point x="760" y="1402"/>
      <point x="757" y="1402" type="curve" smooth="yes"/>
      <point x="668" y="1402"/>
      <point x="583" y="1335"/>
      <point x="583" y="1241" type="curve" smooth="yes"/>
      <point x="583" y="1139"/>
      <point x="660" y="1080"/>
      <point x="751" y="1080" type="curve" smooth="yes"/>
      <point x="851" y="1080"/>
      <point x="931" y="1153"/>
      <point x="931" y="1265" type="curve" smooth="yes"/>
      <point x="931" y="1457"/>
      <point x="719" y="1520"/>
      <point x="543" y="1520" type="curve" smooth="yes"/>
      <point x="323" y="1520"/>
      <point x="143" y="1384"/>
      <point x="143" y="1176" type="curve" smooth="yes"/>
      <point x="143" y="813"/>
      <point x="701" y="868"/>
      <point x="701" y="656" type="curve" smooth="yes"/>
      <point x="701" y="605"/>
      <point x="682" y="574"/>
      <point x="644" y="530" type="curve"/>
      <point x="709" y="528" type="line"/>
      <point x="816" y="580"/>
      <point x="918" y="636"/>
      <point x="918" y="780" type="curve" smooth="yes"/>
      <point x="918" y="1087"/>
      <point x="348" y="1086"/>
    </contour>
    <contour>
      <point x="327" y="864" type="curve" smooth="yes"/>
      <point x="327" y="934"/>
      <point x="365" y="957"/>
      <point x="383" y="980" type="curve"/>
      <point x="321" y="980" type="line"/>
      <point x="223" y="928"/>
      <point x="115" y="835"/>
      <point x="115" y="690" type="curve" smooth="yes"/>
      <point x="115" y="374"/>
      <point x="727" y="415"/>
      <point x="727" y="203" type="curve" smooth="yes"/>
      <point x="727" y="109"/>
      <point x="639" y="53"/>
      <point x="482" y="53" type="curve" smooth="yes"/>
      <point x="394" y="53"/>
      <point x="283" y="72"/>
      <point x="211" y="118" type="curve"/>
      <point x="212" y="113"/>
      <point x="213" y="108"/>
      <point x="214" y="103" type="curve"/>
      <point x="321" y="103"/>
      <point x="407" y="170"/>
      <point x="407" y="264" type="curve" smooth="yes"/>
      <point x="407" y="366"/>
      <point x="330" y="426"/>
      <point x="239" y="426" type="curve" smooth="yes"/>
      <point x="139" y="426"/>
      <point x="60" y="354"/>
      <point x="60" y="242" type="curve" smooth="yes"/>
      <point x="60" y="50"/>
      <point x="306" y="-20"/>
      <point x="482" y="-20" type="curve" smooth="yes"/>
      <point x="762" y="-20"/>
      <point x="927" y="116"/>
      <point x="927" y="324" type="curve" smooth="yes"/>
      <point x="927" y="697"/>
      <point x="327" y="652"/>
    </contour>
  </outline>
</glyph>
<glyph name="logicalnot" format="2">
  <advance width="971"/>
  <unicode hex="00AC"/>
  <outline>
    <contour>
      <point x="779" y="406" type="line"/>
      <point x="852" y="406" type="line"/>
      <point x="852" y="810" type="line"/>
      <point x="120" y="810" type="line"/>
      <point x="120" y="736" type="line"/>
      <point x="779" y="736" type="line"/>
    </contour>
  </outline>
</glyph>
<glyph name="micro" format="2">
  <advance width="1328"/>
  <unicode hex="00B5"/>
  <anchor x="656" y="0" name="bottom"/>
  <anchor x="968" y="0" name="ogonek"/>
  <anchor x="626" y="920" name="top"/>
  <outline>
    <contour>
      <point x="1160" y="920" type="line"/>
      <point x="660" y="920" type="line"/>
      <point x="660" y="848" type="line"/>
      <point x="780" y="848" type="line"/>
      <point x="780" y="476" type="line" smooth="yes"/>
      <point x="780" y="270"/>
      <point x="684" y="144"/>
      <point x="622" y="144" type="curve" smooth="yes"/>
      <point x="566" y="144"/>
      <point x="550" y="168"/>
      <point x="550" y="336" type="curve" smooth="yes"/>
      <point x="550" y="920" type="line"/>
      <point x="28" y="920" type="line"/>
      <point x="28" y="848" type="line"/>
      <point x="170" y="848" type="line"/>
      <point x="170" y="-242" type="line" smooth="yes"/>
      <point x="170" y="-422"/>
      <point x="329" y="-520"/>
      <point x="500" y="-520" type="curve" smooth="yes"/>
      <point x="646" y="-520"/>
      <point x="727" y="-438"/>
      <point x="727" y="-330" type="curve" smooth="yes"/>
      <point x="727" y="-224"/>
      <point x="650" y="-146"/>
      <point x="544" y="-146" type="curve" smooth="yes"/>
      <point x="438" y="-146"/>
      <point x="361" y="-226"/>
      <point x="361" y="-322" type="curve" smooth="yes"/>
      <point x="361" y="-363"/>
      <point x="373" y="-405"/>
      <point x="393" y="-439" type="curve"/>
      <point x="306" y="-412"/>
      <point x="242" y="-349"/>
      <point x="242" y="-242" type="curve" smooth="yes"/>
      <point x="242" y="56" type="line"/>
      <point x="288" y="8"/>
      <point x="361" y="-20"/>
      <point x="468" y="-20" type="curve" smooth="yes"/>
      <point x="626" y="-20"/>
      <point x="724" y="69"/>
      <point x="780" y="182" type="curve"/>
      <point x="780" y="0" type="line"/>
      <point x="1300" y="0" type="line"/>
      <point x="1300" y="72" type="line"/>
      <point x="1160" y="72" type="line"/>
    </contour>
  </outline>
</glyph>
<glyph name="threequarters" format="2">
  <advance width="1520"/>
  <unicode hex="00BE"/>
  <outline>
    <contour>
      <point x="204" y="-200" type="line"/>
      <point x="280" y="-200" type="line"/>
      <point x="1244" y="1300" type="line"/>
      <point x="1172" y="1300" type="line"/>
    </contour>
    <contour>
      <point x="347.2" y="696" type="curve" smooth="yes"/>
      <point x="516.4" y="696"/>
      <point x="707.2" y="792"/>
      <point x="707.2" y="948" type="curve" smooth="yes"/>
      <point x="707.2" y="1080.6"/>
      <point x="554.8" y="1200"/>
      <point x="265.6" y="1200" type="curve"/>
      <point x="265.6" y="1173" type="line"/>
      <point x="408.4" y="1173"/>
      <point x="442" y="1048.8"/>
      <point x="442" y="960" type="curve" smooth="yes"/>
      <point x="442" y="811.2"/>
      <point x="400" y="743.4"/>
      <point x="299.2" y="743.4" type="curve" smooth="yes"/>
      <point x="193.6" y="743.4"/>
      <point x="85" y="832.8"/>
      <point x="85" y="928.8" type="curve"/>
      <point x="41.2" y="928.8" type="line"/>
      <point x="41.2" y="868.8"/>
      <point x="103.6" y="816"/>
      <point x="168.4" y="816" type="curve" smooth="yes"/>
      <point x="233.8" y="816"/>
      <point x="296.2" y="870.6"/>
      <point x="296.2" y="939" type="curve" smooth="yes"/>
      <point x="296.2" y="1012.2"/>
      <point x="238.6" y="1065.6"/>
      <point x="172" y="1065.6" type="curve" smooth="yes"/>
      <point x="100" y="1065.6"/>
      <point x="40" y="1008"/>
      <point x="40" y="928.8" type="curve" smooth="yes"/>
      <point x="40" y="817.8"/>
      <point x="146.8" y="696"/>
    </contour>
    <contour>
      <point x="966" y="-206" type="line"/>
      <point x="1428" y="-206" type="line"/>
      <point x="1428" y="-162.8" type="line"/>
      <point x="1338" y="-162.8" type="line"/>
      <point x="1338" y="694" type="line"/>
      <point x="1158" y="694" type="line"/>
      <point x="702" y="30.4" type="line"/>
      <point x="1470" y="30.4" type="line"/>
      <point x="1470" y="74.8" type="line"/>
      <point x="780" y="74.8" type="line"/>
      <point x="1080" y="506.8" type="line"/>
      <point x="1080" y="-162.8" type="line"/>
      <point x="966" y="-162.8" type="line"/>
    </contour>
    <contour>
      <point x="265.6" y="1189.2" type="line"/>
      <point x="542.8" y="1189.2"/>
      <point x="671.2" y="1297.2"/>
      <point x="671.2" y="1417.2" type="curve" smooth="yes"/>
      <point x="671.2" y="1549.8"/>
      <point x="493" y="1618.8"/>
      <point x="359.2" y="1618.8" type="curve" smooth="yes"/>
      <point x="236.8" y="1618.8"/>
      <point x="75.4" y="1536"/>
      <point x="75.4" y="1425" type="curve" smooth="yes"/>
      <point x="75.4" y="1345.8"/>
      <point x="138.4" y="1290.6"/>
      <point x="205" y="1290.6" type="curve" smooth="yes"/>
      <point x="265" y="1290.6"/>
      <point x="332.8" y="1339.2"/>
      <point x="332.8" y="1417.2" type="curve" smooth="yes"/>
      <point x="332.8" y="1489.2"/>
      <point x="270.4" y="1540.8"/>
      <point x="205" y="1540.8" type="curve" smooth="yes"/>
      <point x="144.4" y="1540.8"/>
      <point x="76.6" y="1491"/>
      <point x="76.6" y="1425" type="curve"/>
      <point x="120.4" y="1425" type="line"/>
      <point x="120.4" y="1515"/>
      <point x="237.4" y="1570.8"/>
      <point x="305.2" y="1570.8" type="curve" smooth="yes"/>
      <point x="382" y="1570.8"/>
      <point x="406" y="1506"/>
      <point x="406" y="1417.2" type="curve" smooth="yes"/>
      <point x="406" y="1340.4"/>
      <point x="396.4" y="1216.2"/>
      <point x="265.6" y="1216.2" type="curve"/>
    </contour>
  </outline>
</glyph>
<glyph name="Eth" format="2">
  <advance width="1628"/>
  <unicode hex="00D0"/>
  <anchor x="726" y="0" name="bottom"/>
  <anchor x="726" y="0" name="cedilla"/>
  <anchor x="744" y="1500" name="top"/>
  <outline>
    <contour>
      <point x="28" y="714" type="line"/>
      <point x="870" y="714" type="line"/>
      <point x="870" y="786" type="line"/>
      <point x="28" y="786" type="line"/>
    </contour>
    <component base="D"/>
  </outline>
</glyph>
<glyph name="thorn" format="2">
  <advance width="1344"/>
  <unicode hex="00FE"/>
  <outline>
    <contour>
      <point x="28" y="-500" type="line"/>
      <point x="688" y="-500" type="line"/>
      <point x="688" y="-428" type="line"/>
      <point x="550" y="-428" type="line"/>
      <point x="550" y="165" type="line"/>
      <point x="614" y="45"/>
      <point x="723" y="-20"/>
      <point x="860" y="-20" type="curve" smooth="yes"/>
      <point x="1078" y="-20"/>
      <point x="1286" y="160"/>
      <point x="1286" y="460" type="curve" smooth="yes"/>
      <point x="1286" y="760"/>
      <point x="1078" y="938"/>
      <point x="860" y="938" type="curve" smooth="yes"/>
      <point x="723" y="938"/>
      <point x="614" y="873"/>
      <point x="550" y="754" type="curve"/>
      <point x="550" y="1500" type="line"/>
      <point x="28" y="1500" type="line"/>
      <point x="28" y="1428" type="line"/>
      <point x="170" y="1428" type="line"/>
      <point x="170" y="-428" type="line"/>
      <point x="28" y="-428" type="line"/>
    </contour>
    <contour>
      <point x="748" y="92" type="curve" smooth="yes"/>
      <point x="672" y="92"/>
      <point x="550" y="222"/>
      <point x="550" y="460" type="curve" smooth="yes"/>
      <point x="550" y="692"/>
      <point x="672" y="824"/>
      <point x="748" y="824" type="curve" smooth="yes"/>
      <point x="816" y="824"/>
      <point x="856" y="752"/>
      <point x="856" y="460" type="curve" smooth="yes"/>
      <point x="856" y="168"/>
      <point x="816" y="92"/>
    </contour>
  </outline>
</glyph>
<glyph name="Dcroat" format="2">
  <advance width="1628"/>
  <unicode hex="0110"/>
  <outline>
    <contour>
      <point x="28.38" y="714" type="line"/>
      <point x="869.9" y="714" type="line"/>
      <point x="869.9" y="786" type="line"/>
      <point x="28.38" y="786" type="line"/>
    </contour>
    <component base="D"/>
  </outline>
</glyph>
<glyph name="idotless" format="2">
  <advance width="738"/>
  <unicode hex="0131"/>
  <anchor x="369" y="0" name="bottom"/>
  <anchor x="435" y="0" name="ogonek"/>
  <anchor x="372" y="920" name="top"/>
  <outline>
    <contour>
      <point x="560" y="920" type="line"/>
      <point x="40" y="920" type="line"/>
      <point x="40" y="848" type="line"/>
      <point x="180" y="848" type="line"/>
      <point x="180" y="72" type="line"/>
      <point x="40" y="72" type="line"/>
      <point x="40" y="0" type="line"/>
      <point x="700" y="0" type="line"/>
      <point x="700" y="72" type="line"/>
      <point x="560" y="72" type="line"/>
    </contour>
  </outline>
</glyph>
<glyph name="kgreenlandic" format="2">
  <advance width="1390"/>
  <unicode hex="0138"/>
  <outline>
    <contour>
      <point x="840" y="0" type="line"/>
      <point x="1308" y="0" type="line"/>
      <point x="836" y="686" type="line"/>
      <point x="1184" y="920" type="line"/>
      <point x="1078" y="920" type="line"/>
      <point x="494" y="542" type="line"/>
    </contour>
    <contour>
      <point x="28" y="0" type="line"/>
      <point x="670" y="0" type="line"/>
      <point x="670" y="72" type="line"/>
      <point x="28" y="72" type="line"/>
    </contour>
    <contour>
      <point x="210" y="0" type="line"/>
      <point x="590" y="0" type="line"/>
      <point x="590" y="920" type="line"/>
      <point x="28" y="920" type="line"/>
      <point x="28" y="848" type="line"/>
      <point x="210" y="848" type="line"/>
    </contour>
    <contour>
      <point x="728" y="0" type="line"/>
      <point x="1382" y="0" type="line"/>
      <point x="1382" y="72" type="line"/>
      <point x="728" y="72" type="line"/>
    </contour>
    <contour>
      <point x="808" y="848" type="line"/>
      <point x="1254" y="848" type="line"/>
      <point x="1254" y="920" type="line"/>
      <point x="808" y="920" type="line"/>
    </contour>
  </outline>
</glyph>
<glyph name="lslash" format="2">
  <advance width="798"/>
  <unicode hex="0142"/>
  <outline>
    <contour>
      <point x="28" y="636" type="line"/>
      <point x="800" y="1076" type="line"/>
      <point x="800" y="1160" type="line"/>
      <point x="28" y="720" type="line"/>
    </contour>
    <component base="l"/>
  </outline>
</glyph>
<glyph name="Tbar" format="2">
  <advance width="1428"/>
  <unicode hex="0166"/>
  <outline>
    <contour>
      <point x="291.001" y="630" type="line"/>
      <point x="1159.998" y="630" type="line"/>
      <point x="1159.998" y="702" type="line"/>
      <point x="291.001" y="702" type="line"/>
    </contour>
    <component base="T"/>
  </outline>
</glyph>
<glyph name="longs" format="2">
  <advance width="860"/>
  <unicode hex="017F"/>
  <anchor x="386" y="0" name="bottom"/>
  <anchor x="766" y="1497" name="top"/>
  <outline>
    <contour>
      <point x="776" y="1520" type="curve" smooth="yes"/>
      <point x="446" y="1520"/>
      <point x="202" y="1325"/>
      <point x="202" y="1023" type="curve" smooth="yes"/>
      <point x="202" y="73" type="line"/>
      <point x="22" y="73" type="line"/>
      <point x="22" y="0" type="line"/>
      <point x="802" y="0" type="line"/>
      <point x="802" y="73" type="line"/>
      <point x="562" y="73" type="line"/>
      <point x="562" y="1080" type="line" smooth="yes"/>
      <point x="562" y="1334"/>
      <point x="636" y="1447"/>
      <point x="806" y="1447" type="curve" smooth="yes"/>
      <point x="848" y="1447"/>
      <point x="867" y="1440"/>
      <point x="887" y="1427" type="curve" smooth="yes"/>
      <point x="890" y="1430"/>
      <point x="894" y="1433"/>
      <point x="897" y="1436" type="curve"/>
      <point x="786" y="1452"/>
      <point x="676" y="1379"/>
      <point x="676" y="1247" type="curve" smooth="yes"/>
      <point x="676" y="1117"/>
      <point x="787" y="1058"/>
      <point x="877" y="1058" type="curve" smooth="yes"/>
      <point x="978" y="1058"/>
      <point x="1082" y="1130"/>
      <point x="1082" y="1262" type="curve" smooth="yes"/>
      <point x="1082" y="1376"/>
      <point x="968" y="1520"/>
    </contour>
  </outline>
</glyph>
<glyph name="tildecomb" format="2">
  <unicode hex="0303"/>
  <anchor x="506" y="1500" name="_top"/>
  <outline>
    <contour>
      <point x="670" y="1640" type="curve" smooth="yes"/>
      <point x="848" y="1640"/>
      <point x="848" y="1786"/>
      <point x="848" y="1974" type="curve"/>
      <point x="776" y="1974" type="line"/>
      <point x="776" y="1930"/>
      <point x="744" y="1876"/>
      <point x="698" y="1876" type="curve" smooth="yes"/>
      <point x="574" y="1876"/>
      <point x="530" y="2034"/>
      <point x="350" y="2034" type="curve" smooth="yes"/>
      <point x="192" y="2034"/>
      <point x="152" y="1870"/>
      <point x="152" y="1700" type="curve"/>
      <point x="226" y="1700" type="line"/>
      <point x="226" y="1744"/>
      <point x="256" y="1796"/>
      <point x="302" y="1796" type="curve" smooth="yes"/>
      <point x="438" y="1796"/>
      <point x="496" y="1640"/>
    </contour>
  </outline>
</glyph>
<glyph name="dotaccentcomb" format="2">
  <unicode hex="0307"/>
  <anchor x="500" y="920" name="_top"/>
  <outline>
    <contour>
      <point x="500" y="1080" type="curve" smooth="yes"/>
      <point x="626" y="1080"/>
      <point x="720" y="1174"/>
      <point x="720" y="1300" type="curve" smooth="yes"/>
      <point x="720" y="1426"/>
      <point x="626" y="1520"/>
      <point x="500" y="1520" type="curve" smooth="yes"/>
      <point x="374" y="1520"/>
      <point x="280" y="1426"/>
      <point x="280" y="1300" type="curve" smooth="yes"/>
      <point x="280" y="1174"/>
      <point x="374" y="1080"/>
    </contour>
  </outline>
</glyph>
<glyph name="hungarumlautcomb" format="2">
  <unicode hex="030B"/>
  <anchor x="403" y="1502" name="_top"/>
  <outline>
    <contour>
      <point x="37" y="1660" type="line"/>
      <point x="309" y="1718" type="line" smooth="yes"/>
      <point x="467" y="1752"/>
      <point x="525" y="1905"/>
      <point x="459" y="2001" type="curve" smooth="yes"/>
      <point x="405" y="2079"/>
      <point x="240" y="2099"/>
      <point x="154" y="1956" type="curve" smooth="yes"/>
      <point x="5" y="1708" type="line"/>
    </contour>
    <contour>
      <point x="547" y="1660" type="line"/>
      <point x="819" y="1718" type="line" smooth="yes"/>
      <point x="977" y="1752"/>
      <point x="1035" y="1905"/>
      <point x="969" y="2001" type="curve" smooth="yes"/>
      <point x="915" y="2079"/>
      <point x="750" y="2099"/>
      <point x="664" y="1956" type="curve" smooth="yes"/>
      <point x="515" y="1708" type="line"/>
    </contour>
  </outline>
</glyph>
<glyph name="commaturnedabovecomb" format="2">
  <unicode hex="0312"/>
  <anchor x="496" y="920" name="_top"/>
  <outline>
    <contour>
      <point x="501" y="1120" type="curve" smooth="yes"/>
      <point x="611" y="1120"/>
      <point x="704" y="1210"/>
      <point x="704" y="1311" type="curve" smooth="yes"/>
      <point x="704" y="1411"/>
      <point x="632" y="1501"/>
      <point x="515" y="1501" type="curve" smooth="yes"/>
      <point x="421" y="1501"/>
      <point x="334" y="1423"/>
      <point x="334" y="1367" type="curve"/>
      <point x="353" y="1367" type="line"/>
      <point x="353" y="1583"/>
      <point x="520" y="1675"/>
      <point x="707" y="1675" type="curve"/>
      <point x="707" y="1735" type="line"/>
      <point x="459" y="1735"/>
      <point x="293" y="1583"/>
      <point x="293" y="1367" type="curve" smooth="yes"/>
      <point x="293" y="1218"/>
      <point x="390" y="1120"/>
    </contour>
  </outline>
</glyph>
<glyph name="dotbelowcomb" format="2">
  <unicode hex="0323"/>
  <anchor x="500" y="0" name="_bottom"/>
  <outline>
    <contour>
      <point x="500" y="-563" type="curve" smooth="yes"/>
      <point x="626" y="-563"/>
      <point x="720" y="-469"/>
      <point x="720" y="-343" type="curve" smooth="yes"/>
      <point x="720" y="-217"/>
      <point x="626" y="-123"/>
      <point x="500" y="-123" type="curve" smooth="yes"/>
      <point x="374" y="-123"/>
      <point x="280" y="-217"/>
      <point x="280" y="-343" type="curve" smooth="yes"/>
      <point x="280" y="-469"/>
      <point x="374" y="-563"/>
    </contour>
  </outline>
</glyph>
<glyph name="ogonekcomb" format="2">
  <unicode hex="0328"/>
  <anchor x="610" y="37" name="_ogonek"/>
  <outline>
    <contour>
      <point x="503" y="-437" type="curve" smooth="yes"/>
      <point x="705" y="-437"/>
      <point x="745" y="-347"/>
      <point x="773" y="-291" type="curve"/>
      <point x="711" y="-263" type="line"/>
      <point x="693" y="-295"/>
      <point x="677" y="-321"/>
      <point x="641" y="-321" type="curve" smooth="yes"/>
      <point x="601" y="-321"/>
      <point x="573" y="-283"/>
      <point x="573" y="-198" type="curve" smooth="yes"/>
      <point x="573" y="-72"/>
      <point x="633" y="25"/>
      <point x="653" y="39" type="curve"/>
      <point x="635" y="91" type="line"/>
      <point x="453" y="41"/>
      <point x="227" y="-105"/>
      <point x="227" y="-265" type="curve" smooth="yes"/>
      <point x="227" y="-385"/>
      <point x="341" y="-437"/>
    </contour>
  </outline>
</glyph>
<glyph name="figuredash" format="2">
  <advance width="934"/>
  <unicode hex="2012"/>
  <outline>
    <contour>
      <point x="119.713" y="514" type="line"/>
      <point x="814.566" y="514" type="line"/>
      <point x="814.566" y="586" type="line"/>
      <point x="119.713" y="586" type="line"/>
    </contour>
  </outline>
</glyph>
<glyph name="interrobang" format="2">
  <advance width="1438"/>
  <unicode hex="203D"/>
  <outline>
    <contour>
      <point x="654" y="670" type="line"/>
      <point x="926" y="670"/>
      <point x="1341" y="830"/>
      <point x="1341" y="1100" type="curve" smooth="yes"/>
      <point x="1341" y="1390"/>
      <point x="1004" y="1520"/>
      <point x="702" y="1520" type="curve" smooth="yes"/>
      <point x="328" y="1520"/>
      <point x="121" y="1336"/>
      <point x="121" y="1132" type="curve" smooth="yes"/>
      <point x="121" y="1020"/>
      <point x="203" y="918"/>
      <point x="314" y="918" type="curve" smooth="yes"/>
      <point x="414" y="918"/>
      <point x="508" y="1010"/>
      <point x="508" y="1120" type="curve" smooth="yes"/>
      <point x="508" y="1220"/>
      <point x="423" y="1320"/>
      <point x="314" y="1320" type="curve" smooth="yes"/>
      <point x="305" y="1320"/>
      <point x="298" y="1319"/>
      <point x="291" y="1317" type="curve"/>
      <point x="374" y="1398"/>
      <point x="500" y="1443"/>
      <point x="655" y="1443" type="curve" smooth="yes"/>
      <point x="873" y="1443"/>
      <point x="998" y="1358"/>
      <point x="998" y="1120" type="curve" smooth="yes"/>
      <point x="998" y="884"/>
      <point x="828" y="757"/>
      <point x="654" y="736" type="curve"/>
    </contour>
    <contour>
      <point x="678" y="-20" type="curve" smooth="yes"/>
      <point x="810" y="-20"/>
      <point x="918" y="88"/>
      <point x="918" y="220" type="curve" smooth="yes"/>
      <point x="918" y="352"/>
      <point x="810" y="460"/>
      <point x="678" y="460" type="curve" smooth="yes"/>
      <point x="546" y="460"/>
      <point x="438" y="352"/>
      <point x="438" y="220" type="curve" smooth="yes"/>
      <point x="438" y="88"/>
      <point x="546" y="-20"/>
    </contour>
    <contour>
      <point x="659" y="556" type="curve"/>
      <point x="732" y="556" type="line"/>
      <point x="732" y="697"/>
      <point x="871" y="917"/>
      <point x="892" y="1108" type="curve" smooth="yes"/>
      <point x="894" y="1122"/>
      <point x="894" y="1134"/>
      <point x="894" y="1146" type="curve" smooth="yes"/>
      <point x="894" y="1243"/>
      <point x="808" y="1296"/>
      <point x="714" y="1296" type="curve" smooth="yes"/>
      <point x="620" y="1296"/>
      <point x="534" y="1243"/>
      <point x="534" y="1146" type="curve" smooth="yes"/>
      <point x="534" y="1134"/>
      <point x="534" y="1122"/>
      <point x="536" y="1108" type="curve" smooth="yes"/>
      <point x="557" y="917"/>
      <point x="659" y="697"/>
    </contour>
  </outline>
</glyph>
<glyph name="foursuperior" format="2">
  <advance width="861"/>
  <unicode hex="2074"/>
  <outline>
    <contour>
      <point x="296.4" y="919" type="line"/>
      <point x="758.4" y="919" type="line"/>
      <point x="758.4" y="962.2" type="line"/>
      <point x="668.4" y="962.2" type="line"/>
      <point x="668.4" y="1819" type="line"/>
      <point x="488.4" y="1819" type="line"/>
      <point x="32.4" y="1155.4" type="line"/>
      <point x="800.4" y="1155.4" type="line"/>
      <point x="800.4" y="1199.8" type="line"/>
      <point x="110.4" y="1199.8" type="line"/>
      <point x="410.4" y="1631.8" type="line"/>
      <point x="410.4" y="962.2" type="line"/>
      <point x="296.4" y="962.2" type="line"/>
    </contour>
  </outline>
</glyph>
<glyph name="radical" format="2">
  <advance width="1190"/>
  <unicode hex="221A"/>
  <outline>
    <contour>
      <point x="539" y="-20" type="line"/>
      <point x="677" y="-20" type="line"/>
      <point x="1026" y="1428" type="line"/>
      <point x="1190" y="1428" type="line"/>
      <point x="1190" y="1500" type="line"/>
      <point x="969" y="1500" type="line"/>
      <point x="691" y="358" type="line"/>
      <point x="507" y="676" type="line"/>
      <point x="111" y="450" type="line"/>
      <point x="141" y="383" type="line"/>
      <point x="253" y="441" type="line"/>
    </contour>
  </outline>
</glyph>
<glyph name="curvedStemParagraphSignOrnament" format="2">
  <advance width="1322"/>
  <unicode hex="2761"/>
  <outline>
    <contour>
      <point x="475" y="-94" type="curve" smooth="yes"/>
      <point x="752" y="-94"/>
      <point x="906" y="166"/>
      <point x="906" y="457" type="curve" smooth="yes"/>
      <point x="906" y="1600" type="line"/>
      <point x="833" y="1600" type="line"/>
      <point x="833" y="451" type="line" smooth="yes"/>
      <point x="833" y="191"/>
      <point x="698" y="-20"/>
      <point x="475" y="-20" type="curve" smooth="yes"/>
      <point x="346" y="-20"/>
      <point x="250" y="46"/>
      <point x="209" y="149" type="curve"/>
      <point x="223" y="137"/>
      <point x="259" y="129"/>
      <point x="301" y="129" type="curve" smooth="yes"/>
      <point x="381" y="129"/>
      <point x="458" y="185"/>
      <point x="458" y="267" type="curve" smooth="yes"/>
      <point x="458" y="371"/>
      <point x="383" y="432"/>
      <point x="301" y="432" type="curve" smooth="yes"/>
      <point x="209" y="432"/>
      <point x="123" y="365"/>
      <point x="123" y="217" type="curve" smooth="yes"/>
      <point x="123" y="76"/>
      <point x="250" y="-94"/>
    </contour>
    <contour>
      <point x="686" y="619" type="curve" smooth="yes"/>
      <point x="892" y="619" type="line"/>
      <point x="892" y="691" type="line"/>
      <point x="715" y="691" type="line" smooth="yes"/>
      <point x="615" y="691"/>
      <point x="521" y="774"/>
      <point x="521" y="1010" type="curve" smooth="yes"/>
      <point x="521" y="1246"/>
      <point x="615" y="1329"/>
      <point x="715" y="1329" type="curve" smooth="yes"/>
      <point x="1174" y="1329" type="line"/>
      <point x="1174" y="1402" type="line"/>
      <point x="686" y="1402" type="line" smooth="yes"/>
      <point x="325" y="1402"/>
      <point x="131" y="1270"/>
      <point x="131" y="1010" type="curve" smooth="yes"/>
      <point x="131" y="750"/>
      <point x="325" y="619"/>
    </contour>
  </outline>
</glyph>
<glyph name=".notdef" format="2">
  <advance width="1200"/>
  <outline>
    <contour>
      <point x="213" y="0" type="line"/>
      <point x="987" y="0" type="line"/>
      <point x="987" y="1500" type="line"/>
      <point x="213" y="1500" type="line"/>
    </contour>
    <contour>
      <point x="253" y="39" type="line"/>
      <point x="253" y="1461" type="line"/>
      <point x="947" y="1461" type="line"/>
      <point x="947" y="39" type="line"/>
    </contour>
    <contour>
      <point x="601.349" y="443.395" type="curve" smooth="yes"/>
      <point x="634.709" y="443.395"/>
      <point x="657.891" y="468.273"/>
      <point x="657.891" y="512.376" type="curve" smooth="yes"/>
      <point x="657.891" y="519.161"/>
      <point x="657.891" y="525.381"/>
      <point x="656.76" y="533.297" type="curve" smooth="yes"/>
      <point x="646.017" y="609.064"/>
      <point x="626.793" y="623.2"/>
      <point x="622.269" y="714.233" type="curve"/>
      <point x="699.167" y="665.041"/>
      <point x="701.994" y="640.728"/>
      <point x="761.929" y="593.798" type="curve" smooth="yes"/>
      <point x="768.149" y="588.709"/>
      <point x="773.803" y="585.882"/>
      <point x="779.458" y="582.489" type="curve" smooth="yes"/>
      <point x="817.907" y="560.438"/>
      <point x="850.136" y="568.353"/>
      <point x="867.099" y="597.19" type="curve" smooth="yes"/>
      <point x="884.061" y="626.027"/>
      <point x="874.449" y="658.256"/>
      <point x="836" y="680.308" type="curve" smooth="yes"/>
      <point x="830.346" y="683.7"/>
      <point x="824.692" y="687.093"/>
      <point x="817.341" y="689.92" type="curve" smooth="yes"/>
      <point x="746.663" y="718.757"/>
      <point x="724.046" y="708.579"/>
      <point x="643.756" y="750.42" type="curve"/>
      <point x="724.046" y="792.262"/>
      <point x="746.663" y="782.084"/>
      <point x="817.341" y="810.921" type="curve" smooth="yes"/>
      <point x="824.692" y="813.748"/>
      <point x="830.346" y="817.141"/>
      <point x="836" y="820.533" type="curve" smooth="yes"/>
      <point x="874.449" y="842.585"/>
      <point x="884.061" y="874.814"/>
      <point x="867.099" y="903.651" type="curve" smooth="yes"/>
      <point x="850.136" y="932.487"/>
      <point x="817.907" y="940.403"/>
      <point x="779.458" y="918.352" type="curve" smooth="yes"/>
      <point x="773.803" y="914.959"/>
      <point x="768.149" y="912.132"/>
      <point x="761.929" y="907.043" type="curve" smooth="yes"/>
      <point x="701.994" y="860.113"/>
      <point x="699.167" y="835.8"/>
      <point x="622.269" y="786.608" type="curve"/>
      <point x="626.793" y="877.641"/>
      <point x="646.017" y="891.777"/>
      <point x="656.76" y="967.544" type="curve" smooth="yes"/>
      <point x="657.891" y="975.46"/>
      <point x="657.891" y="981.679"/>
      <point x="657.891" y="988.464" type="curve" smooth="yes"/>
      <point x="657.891" y="1032.568"/>
      <point x="634.709" y="1057.446"/>
      <point x="601.349" y="1057.446" type="curve" smooth="yes"/>
      <point x="567.989" y="1057.446"/>
      <point x="544.806" y="1032.568"/>
      <point x="544.806" y="988.464" type="curve" smooth="yes"/>
      <point x="544.806" y="981.679"/>
      <point x="544.806" y="975.46"/>
      <point x="545.937" y="967.544" type="curve" smooth="yes"/>
      <point x="556.68" y="891.777"/>
      <point x="575.905" y="877.641"/>
      <point x="580.428" y="786.608" type="curve"/>
      <point x="503.53" y="835.8"/>
      <point x="500.703" y="860.113"/>
      <point x="440.768" y="907.043" type="curve" smooth="yes"/>
      <point x="434.548" y="912.132"/>
      <point x="428.894" y="914.959"/>
      <point x="423.24" y="918.352" type="curve" smooth="yes"/>
      <point x="384.791" y="940.403"/>
      <point x="352.562" y="932.487"/>
      <point x="335.599" y="903.651" type="curve" smooth="yes"/>
      <point x="318.636" y="874.814"/>
      <point x="328.248" y="842.585"/>
      <point x="366.697" y="820.533" type="curve" smooth="yes"/>
      <point x="372.352" y="817.141"/>
      <point x="378.006" y="813.748"/>
      <point x="385.356" y="810.921" type="curve" smooth="yes"/>
      <point x="456.034" y="782.084"/>
      <point x="478.651" y="792.262"/>
      <point x="558.942" y="750.42" type="curve"/>
      <point x="478.651" y="708.579"/>
      <point x="456.034" y="718.757"/>
      <point x="385.356" y="689.92" type="curve" smooth="yes"/>
      <point x="378.006" y="687.093"/>
      <point x="372.352" y="683.7"/>
      <point x="366.697" y="680.308" type="curve" smooth="yes"/>
      <point x="328.248" y="658.256"/>
      <point x="318.636" y="626.027"/>
      <point x="335.599" y="597.19" type="curve" smooth="yes"/>
      <point x="352.562" y="568.353"/>
      <point x="384.791" y="560.438"/>
      <point x="423.24" y="582.489" type="curve" smooth="yes"/>
      <point x="428.894" y="585.882"/>
      <point x="434.548" y="588.709"/>
      <point x="440.768" y="593.798" type="curve" smooth="yes"/>
      <point x="500.703" y="640.728"/>
      <point x="503.53" y="665.041"/>
      <point x="580.428" y="714.233" type="curve"/>
      <point x="575.905" y="623.2"/>
      <point x="556.68" y="609.064"/>
      <point x="545.937" y="533.297" type="curve" smooth="yes"/>
      <point x="544.806" y="525.381"/>
      <point x="544.806" y="519.161"/>
      <point x="544.806" y="512.376" type="curve" smooth="yes"/>
      <point x="544.806" y="468.273"/>
      <point x="567.989" y="443.395"/>
    </contour>
  </outline>
</glyph>
<glyph name="a.sc" format="2">
  <advance width="1312"/>
  <anchor x="528" y="0" name="bottom"/>
  <anchor x="988" y="0" name="ogonek"/>
  <anchor x="654" y="1012" name="top"/>
  <outline>
    <contour>
      <point x="90" y="0" type="line"/>
      <point x="174" y="0" type="line"/>
      <point x="447" y="628" type="line"/>
      <point x="722" y="0" type="line"/>
      <point x="1222" y="0" type="line"/>
      <point x="782" y="1040" type="line"/>
      <point x="542" y="1040" type="line"/>
    </contour>
    <contour>
      <point x="0" y="0" type="line"/>
      <point x="344" y="0" type="line"/>
      <point x="344" y="72" type="line"/>
      <point x="0" y="72" type="line"/>
    </contour>
    <contour>
      <point x="272" y="270" type="line"/>
      <point x="880" y="270" type="line"/>
      <point x="880" y="342" type="line"/>
      <point x="272" y="342" type="line"/>
    </contour>
    <contour>
      <point x="548" y="0" type="line"/>
      <point x="1312" y="0" type="line"/>
      <point x="1312" y="72" type="line"/>
      <point x="548" y="72" type="line"/>
    </contour>
  </outline>
</glyph>
<glyph name="e.sc" format="2">
  <advance width="1218"/>
  <anchor x="735" y="0" name="bottom"/>
  <anchor x="985" y="0" name="ogonek"/>
  <anchor x="663" y="1020" name="top"/>
  <outline>
    <contour>
      <point x="815" y="377" type="curve"/>
      <point x="889" y="377" type="line"/>
      <point x="889" y="706" type="line"/>
      <point x="815" y="706" type="line"/>
      <point x="775" y="602"/>
      <point x="718" y="582"/>
      <point x="665" y="582" type="curve" smooth="yes"/>
      <point x="555" y="582" type="line"/>
      <point x="555" y="509" type="line"/>
      <point x="665" y="509" type="line" smooth="yes"/>
      <point x="718" y="509"/>
      <point x="775" y="481"/>
    </contour>
    <contour>
      <point x="1035" y="350" type="line"/>
      <point x="983" y="148"/>
      <point x="917" y="73"/>
      <point x="745" y="73" type="curve" smooth="yes"/>
      <point x="646" y="73" type="line"/>
      <point x="646" y="947" type="line"/>
      <point x="776" y="947" type="line" smooth="yes"/>
      <point x="910" y="947"/>
      <point x="975" y="874"/>
      <point x="1025" y="710" type="curve"/>
      <point x="1099" y="710" type="line"/>
      <point x="1099" y="1020" type="line"/>
      <point x="85" y="1020" type="line"/>
      <point x="85" y="947" type="line"/>
      <point x="216" y="947" type="line"/>
      <point x="216" y="73" type="line"/>
      <point x="85" y="73" type="line"/>
      <point x="85" y="0" type="line"/>
      <point x="1108" y="0" type="line"/>
      <point x="1108" y="350" type="line"/>
    </contour>
  </outline>
</glyph>
<glyph name="f.sc" format="2">
  <advance width="1138"/>
  <anchor x="445" y="0" name="bottom"/>
  <anchor x="753" y="1020" name="top"/>
  <outline>
    <contour>
      <point x="835" y="346" type="curve"/>
      <point x="909" y="346" type="line"/>
      <point x="909" y="655" type="line"/>
      <point x="835" y="655" type="line"/>
      <point x="785" y="571"/>
      <point x="750" y="542"/>
      <point x="676" y="542" type="curve" smooth="yes"/>
      <point x="565" y="542" type="line"/>
      <point x="565" y="470" type="line"/>
      <point x="676" y="470" type="line" smooth="yes"/>
      <point x="750" y="470"/>
      <point x="785" y="430"/>
    </contour>
    <contour>
      <point x="1078" y="1020" type="line"/>
      <point x="85" y="1020" type="line"/>
      <point x="85" y="947" type="line"/>
      <point x="216" y="947" type="line"/>
      <point x="216" y="73" type="line"/>
      <point x="85" y="73" type="line"/>
      <point x="85" y="0" type="line"/>
      <point x="795" y="0" type="line"/>
      <point x="795" y="73" type="line"/>
      <point x="646" y="73" type="line"/>
      <point x="646" y="947" type="line"/>
      <point x="765" y="947" type="line" smooth="yes"/>
      <point x="879" y="947"/>
      <point x="955" y="894"/>
      <point x="1005" y="710" type="curve"/>
      <point x="1078" y="710" type="line"/>
    </contour>
  </outline>
</glyph>
<glyph name="f_f" format="2">
  <advance width="1540"/>
  <outline>
    <contour>
      <point x="1456" y="1520" type="curve" smooth="yes"/>
      <point x="1126" y="1520"/>
      <point x="882" y="1325"/>
      <point x="882" y="1023" type="curve" smooth="yes"/>
      <point x="882" y="920" type="line"/>
      <point x="22" y="920" type="line"/>
      <point x="22" y="847" type="line"/>
      <point x="882" y="847" type="line"/>
      <point x="882" y="73" type="line"/>
      <point x="22" y="73" type="line"/>
      <point x="22" y="0" type="line"/>
      <point x="1482" y="0" type="line"/>
      <point x="1482" y="73" type="line"/>
      <point x="1242" y="73" type="line"/>
      <point x="1242" y="847" type="line"/>
      <point x="1522" y="847" type="line"/>
      <point x="1522" y="920" type="line"/>
      <point x="1242" y="920" type="line"/>
      <point x="1242" y="1080" type="line" smooth="yes"/>
      <point x="1242" y="1334"/>
      <point x="1326" y="1447"/>
      <point x="1456" y="1447" type="curve" smooth="yes"/>
      <point x="1474" y="1447"/>
      <point x="1497" y="1444"/>
      <point x="1515" y="1435" type="curve"/>
      <point x="1514" y="1441"/>
      <point x="1513" y="1447"/>
      <point x="1512" y="1453" type="curve"/>
      <point x="1429" y="1433"/>
      <point x="1356" y="1359"/>
      <point x="1356" y="1257" type="curve" smooth="yes"/>
      <point x="1356" y="1127"/>
      <point x="1457" y="1058"/>
      <point x="1557" y="1058" type="curve" smooth="yes"/>
      <point x="1668" y="1058"/>
      <point x="1762" y="1140"/>
      <point x="1762" y="1272" type="curve" smooth="yes"/>
      <point x="1762" y="1366"/>
      <point x="1658" y="1520"/>
    </contour>
    <contour>
      <point x="771" y="1420" type="curve" smooth="yes"/>
      <point x="451" y="1420"/>
      <point x="202" y="1215"/>
      <point x="202" y="923" type="curve" smooth="yes"/>
      <point x="202" y="40" type="line"/>
      <point x="562" y="40" type="line"/>
      <point x="562" y="980" type="line" smooth="yes"/>
      <point x="562" y="1234"/>
      <point x="641" y="1347"/>
      <point x="791" y="1347" type="curve" smooth="yes"/>
      <point x="826" y="1347"/>
      <point x="861" y="1343"/>
      <point x="893" y="1332" type="curve"/>
      <point x="893" y="1337"/>
      <point x="894" y="1341"/>
      <point x="894" y="1346" type="curve"/>
      <point x="802" y="1334"/>
      <point x="716" y="1250"/>
      <point x="716" y="1157" type="curve" smooth="yes"/>
      <point x="716" y="1027"/>
      <point x="817" y="958"/>
      <point x="917" y="958" type="curve" smooth="yes"/>
      <point x="1028" y="958"/>
      <point x="1122" y="1040"/>
      <point x="1122" y="1172" type="curve" smooth="yes"/>
      <point x="1122" y="1306"/>
      <point x="953" y="1420"/>
    </contour>
  </outline>
</glyph>
<glyph name="m.sc" format="2">
  <advance width="1711"/>
  <anchor x="715" y="0" name="bottom"/>
  <anchor x="765" y="1020" name="top"/>
  <outline>
    <contour>
      <point x="621" y="-20" type="line"/>
      <point x="812" y="-20" type="line"/>
      <point x="1137" y="1020" type="line"/>
      <point x="1058" y="1020" type="line"/>
      <point x="876" y="466" type="line"/>
      <point x="657" y="1020" type="line"/>
      <point x="224" y="1020" type="line"/>
    </contour>
    <contour>
      <point x="95" y="0" type="line"/>
      <point x="352" y="0" type="line"/>
      <point x="352" y="73" type="line"/>
      <point x="95" y="73" type="line"/>
    </contour>
    <contour>
      <point x="185" y="0" type="line"/>
      <point x="262" y="0" type="line"/>
      <point x="262" y="1020" type="line"/>
      <point x="85" y="1020" type="line"/>
      <point x="85" y="947" type="line"/>
      <point x="185" y="947" type="line"/>
    </contour>
    <contour>
      <point x="996" y="0" type="line"/>
      <point x="1626" y="0" type="line"/>
      <point x="1626" y="73" type="line"/>
      <point x="996" y="73" type="line"/>
    </contour>
    <contour>
      <point x="1106" y="0" type="line"/>
      <point x="1536" y="0" type="line"/>
      <point x="1536" y="947" type="line"/>
      <point x="1626" y="947" type="line"/>
      <point x="1626" y="1020" type="line"/>
      <point x="1106" y="1020" type="line"/>
    </contour>
  </outline>
</glyph>
<glyph name="one.osf" format="2">
  <advance width="1108"/>
  <outline>
    <contour>
      <point x="360" y="20" type="line"/>
      <point x="790" y="20" type="line"/>
      <point x="790" y="920" type="line"/>
      <point x="134" y="920" type="line"/>
      <point x="134" y="848" type="line"/>
      <point x="360" y="848" type="line"/>
    </contour>
    <contour>
      <point x="100" y="0" type="line"/>
      <point x="1010" y="0" type="line"/>
      <point x="1010" y="72" type="line"/>
      <point x="100" y="72" type="line"/>
    </contour>
  </outline>
</glyph>
<glyph name="oslash.sc" format="2">
  <advance width="1339"/>
  <outline>
    <contour>
      <point x="165" y="-60" type="line"/>
      <point x="248" y="-60" type="line"/>
      <point x="1198" y="1081" type="line"/>
      <point x="1115" y="1081" type="line"/>
    </contour>
    <component base="o.sc"/>
  </outline>
</glyph>
<glyph name="p.sc" format="2">
  <advance width="1325"/>
  <anchor x="431" y="0" name="bottom"/>
  <anchor x="655" y="1020" name="top"/>
  <outline>
    <contour>
      <point x="505" y="389" type="line"/>
      <point x="745" y="389" type="line" smooth="yes"/>
      <point x="1046" y="389"/>
      <point x="1265" y="444"/>
      <point x="1265" y="704" type="curve" smooth="yes"/>
      <point x="1265" y="964"/>
      <point x="1046" y="1020"/>
      <point x="745" y="1020" type="curve" smooth="yes"/>
      <point x="85" y="1020" type="line"/>
      <point x="85" y="947" type="line"/>
      <point x="695" y="947" type="line" smooth="yes"/>
      <point x="816" y="947"/>
      <point x="846" y="832"/>
      <point x="846" y="704" type="curve" smooth="yes"/>
      <point x="846" y="576"/>
      <point x="816" y="461"/>
      <point x="695" y="461" type="curve" smooth="yes"/>
      <point x="505" y="461" type="line"/>
    </contour>
    <contour>
      <point x="85" y="0" type="line"/>
      <point x="776" y="0" type="line"/>
      <point x="776" y="73" type="line"/>
      <point x="85" y="73" type="line"/>
    </contour>
    <contour>
      <point x="216" y="0" type="line"/>
      <point x="646" y="0" type="line"/>
      <point x="646" y="1020" type="line"/>
      <point x="216" y="1020" type="line"/>
    </contour>
  </outline>
</glyph>
<glyph name="three.osf" format="2">
  <advance width="1240"/>
  <outline>
    <contour>
      <point x="562" y="-519.96" type="curve" smooth="yes"/>
      <point x="844" y="-519.96"/>
      <point x="1162" y="-368.283"/>
      <point x="1162" y="-121.808" type="curve" smooth="yes"/>
      <point x="1162" y="87.696"/>
      <point x="908" y="276.344"/>
      <point x="426" y="276.344" type="curve"/>
      <point x="426" y="233.685" type="line"/>
      <point x="664" y="233.685"/>
      <point x="720" y="37.453"/>
      <point x="720" y="-102.848" type="curve" smooth="yes"/>
      <point x="720" y="-337.947"/>
      <point x="650" y="-445.069"/>
      <point x="482" y="-445.069" type="curve" smooth="yes"/>
      <point x="306" y="-445.069"/>
      <point x="125" y="-303.82"/>
      <point x="125" y="-152.143" type="curve"/>
      <point x="52" y="-152.143" type="line"/>
      <point x="52" y="-246.941"/>
      <point x="156" y="-330.364"/>
      <point x="264" y="-330.364" type="curve" smooth="yes"/>
      <point x="373" y="-330.364"/>
      <point x="477" y="-244.097"/>
      <point x="477" y="-136.028" type="curve" smooth="yes"/>
      <point x="477" y="-20.374"/>
      <point x="381" y="63.996"/>
      <point x="270" y="63.996" type="curve" smooth="yes"/>
      <point x="150" y="63.996"/>
      <point x="50" y="-27.01"/>
      <point x="50" y="-152.143" type="curve" smooth="yes"/>
      <point x="50" y="-327.52"/>
      <point x="228" y="-519.96"/>
    </contour>
    <contour>
      <point x="426" y="259.28" type="line"/>
      <point x="888" y="259.28"/>
      <point x="1102" y="429.916"/>
      <point x="1102" y="619.512" type="curve" smooth="yes"/>
      <point x="1102" y="829.016"/>
      <point x="805" y="938.034"/>
      <point x="582" y="938.034" type="curve" smooth="yes"/>
      <point x="378" y="938.034"/>
      <point x="109" y="807.212"/>
      <point x="109" y="631.836" type="curve" smooth="yes"/>
      <point x="109" y="506.703"/>
      <point x="214" y="419.489"/>
      <point x="325" y="419.489" type="curve" smooth="yes"/>
      <point x="425" y="419.489"/>
      <point x="538" y="496.275"/>
      <point x="538" y="619.512" type="curve" smooth="yes"/>
      <point x="538" y="733.27"/>
      <point x="434" y="814.796"/>
      <point x="325" y="814.796" type="curve" smooth="yes"/>
      <point x="224" y="814.796"/>
      <point x="111" y="736.114"/>
      <point x="111" y="631.836" type="curve"/>
      <point x="184" y="631.836" type="line"/>
      <point x="184" y="774.033"/>
      <point x="379" y="862.195"/>
      <point x="492" y="862.195" type="curve" smooth="yes"/>
      <point x="620" y="862.195"/>
      <point x="660" y="759.813"/>
      <point x="660" y="619.512" type="curve" smooth="yes"/>
      <point x="660" y="498.171"/>
      <point x="644" y="301.939"/>
      <point x="426" y="301.939" type="curve"/>
    </contour>
  </outline>
</glyph>
<glyph name="two.osf" format="2">
  <advance width="1042"/>
  <outline>
    <contour>
      <point x="83" y="0" type="line"/>
      <point x="972" y="0" type="line"/>
      <point x="972" y="430" type="line"/>
      <point x="900" y="430" type="line"/>
      <point x="900" y="280" type="line"/>
      <point x="314" y="280" type="line"/>
      <point x="444" y="337" type="line" smooth="yes"/>
      <point x="582.17" y="397.582"/>
      <point x="941" y="491"/>
      <point x="941" y="681" type="curve" smooth="yes"/>
      <point x="941" y="841"/>
      <point x="775" y="940"/>
      <point x="513" y="940" type="curve" smooth="yes"/>
      <point x="264" y="940"/>
      <point x="80" y="828"/>
      <point x="80" y="654" type="curve" smooth="yes"/>
      <point x="80" y="530"/>
      <point x="163" y="444"/>
      <point x="273" y="444" type="curve" smooth="yes"/>
      <point x="383" y="444"/>
      <point x="468" y="522"/>
      <point x="468" y="632" type="curve" smooth="yes"/>
      <point x="468" y="732"/>
      <point x="390" y="814"/>
      <point x="281" y="814" type="curve" smooth="yes"/>
      <point x="165" y="814"/>
      <point x="82" y="694"/>
      <point x="82" y="654" type="curve"/>
      <point x="140" y="654" type="line"/>
      <point x="140" y="814"/>
      <point x="295" y="865"/>
      <point x="353" y="865" type="curve" smooth="yes"/>
      <point x="475" y="865"/>
      <point x="561" y="813"/>
      <point x="561" y="660" type="curve" smooth="yes"/>
      <point x="561" y="512"/>
      <point x="501.571" y="433.349"/>
      <point x="365" y="367" type="curve" smooth="yes"/>
      <point x="83" y="230" type="line"/>
    </contour>
  </outline>
</glyph>
